<svg width="24" height="24" viewBox="0 0 24 24" fill="none" xmlns="http://www.w3.org/2000/svg">
<path d="M20.1177 19.2758C19.8377 18.9458 19.5277 18.6158 19.1677 18.2758C17.7977 16.9558 16.4076 15.6058 15.0476 14.3158L13.9577 13.2758C13.8377 13.1558 13.7077 13.0458 13.5877 12.9258L13.4676 12.8158C13.4676 12.8158 13.4776 12.7858 13.4876 12.7758C13.5276 12.7358 13.5677 12.6859 13.6077 12.6459C14.4077 11.8659 14.8577 10.8758 14.9177 9.72585C15.0277 7.72585 14.3477 6.03585 12.8977 4.69585C12.1977 4.03585 11.2976 3.62585 10.3276 3.53585C9.36765 3.43585 8.39765 3.54585 7.48765 3.85585C6.10765 4.32585 4.98765 5.18585 4.03765 6.48585C3.19765 7.63585 2.86765 8.91585 3.04765 10.2758C3.17765 11.2258 3.56765 12.1158 4.29765 13.0858C4.79765 13.7558 5.41765 14.2059 6.15765 14.4459C6.73765 14.6358 7.34765 14.7358 7.95765 14.7458C9.51765 14.7758 11.0477 14.3658 12.5077 13.5058C12.5677 13.4658 12.6377 13.4359 12.6977 13.3959L12.7277 13.3759C12.8477 13.5059 12.9676 13.6458 13.0776 13.7758C13.3576 14.0958 13.6276 14.3959 13.9076 14.6959C15.3476 16.2359 16.9077 17.7059 18.4177 19.1259C18.6977 19.3859 18.9777 19.6558 19.2577 19.9158C19.4277 20.0758 19.6177 20.2158 19.8177 20.3358L19.9177 20.4058C19.9877 20.4558 20.0777 20.4859 20.1677 20.4859C20.2077 20.4859 20.2477 20.4858 20.2877 20.4558C20.3277 20.4358 20.3577 20.4159 20.3877 20.3759C20.4677 20.2659 20.5276 20.0658 20.4676 19.9358C20.3676 19.6958 20.2277 19.4658 20.0577 19.2558L20.1177 19.2758ZM8.86765 4.82585C9.02765 4.80585 9.18765 4.79585 9.34765 4.77585C11.5476 4.69585 12.8576 6.20585 13.3476 7.63585C13.6876 8.62585 13.7577 9.46585 13.5677 10.2758C13.4477 10.8158 13.1776 11.3158 12.7976 11.7258C12.2576 12.2958 11.5777 12.7258 10.6477 13.0658C9.55765 13.4758 8.37765 13.6158 7.22765 13.4558C6.31765 13.3358 5.62765 12.9259 5.11765 12.2159C4.64765 11.5459 4.35764 10.9559 4.21764 10.3559C4.01764 9.54585 4.07765 8.69585 4.37765 7.92585C4.87765 6.62585 5.74765 5.69585 6.95765 5.14585C7.17765 5.04585 7.42765 5.01585 7.67765 4.97585H7.68765C8.07765 4.92585 8.47766 4.87585 8.85766 4.83585L8.86765 4.82585Z" fill="#090911" stroke="#090911" stroke-width="0.5" stroke-miterlimit="10"/>
</svg>
