<?xml version="1.0" encoding="UTF-8"?>
<svg id="Capa_2" data-name="Capa 2" xmlns="http://www.w3.org/2000/svg" viewBox="0 0 109.21 51.95">
  <defs>
    <style>
      .cls-1 {
        fill: #0a2241;
      }

      .cls-2 {
        fill: #fff;
      }
    </style>
  </defs>
  <g id="Grupo_1920" data-name="Grupo 1920">
    <g>
      <rect class="cls-1" width="109.21" height="51.95"/>
      <g id="Grupo_1916" data-name="Grupo 1916">
        <path id="Trazado_389" data-name="Trazado 389" class="cls-2" d="M20.79,6.55v32.24c0,3.1.06,6.38,3.45,6.55v.52h-12.76v-.52c3.39-.4,3.45-3.62,3.45-6.55V15.12c0-3.16-.06-6.38-3.45-6.55v-.52l9.31-1.5Z"/>
        <path id="Trazado_390" data-name="Trazado 390" class="cls-2" d="M47.51,45.86c-1.18-1.47-1.86-3.28-1.95-5.17-2.24,4.08-7.01,5.75-11.44,5.75-5.23,0-9.08-2.47-9.08-6.72,0-9.02,13.39-11.09,20.06-12.7v-1.09c0-4.25-1.55-5.75-5.8-5.75-5.3-.18-10.17,2.93-12.24,7.82l.92-9.42c1.09.86,1.72.98,3.68.29,3.16-1.26,6.54-1.91,9.94-1.9,7.3,0,9.71,2.47,9.71,9.65v10.8c0,3.45.06,7.13,4.08,7.93v.52h-7.88ZM45.1,29.37c-4.54.98-13.5,3.68-13.5,9.6,0,2.7,2.18,4.25,4.65,4.25,7.36,0,8.85-6.78,8.85-11.49v-2.36Z"/>
        <path id="Trazado_391" data-name="Trazado 391" class="cls-2" d="M65.61,17.53v21.26c0,3.1.06,6.38,3.45,6.55v.52h-12.76v-.52c3.39-.29,3.45-3.56,3.45-6.55v-13.45c0-2.99-.06-6.21-3.45-6.55v-.52l9.31-.75ZM58.77,9.71c0-2.36,1.44-4.25,3.91-4.25,2.18.09,3.89,1.9,3.85,4.08,0,2.13-1.49,4.31-3.79,4.31-2.2,0-3.97-1.79-3.97-3.99,0-.05,0-.1,0-.15h0Z"/>
        <path id="Trazado_392" data-name="Trazado 392" class="cls-2" d="M75.27,32.93c.92,5.92,5.92,10.75,11.95,10.75,2.56-.17,5-1.16,6.95-2.82,1.29-1.24,2.33-2.73,3.05-4.37l.52.23-2.99,9.48c-.18-.19-.43-.31-.69-.35-.4-.06-.8-.07-1.21-.06-1.19.03-2.39.14-3.56.35-1.46.23-2.94.34-4.42.34-4.83,0-16.15-3.73-16.15-14.77,0-8.56,6.67-14.77,15.11-14.77,6.21,0,11.78,3.74,13.39,9.88l-21.95,6.09ZM90.5,26.09c-1.09-3.22-3.5-6.38-7.18-6.38-5.86,0-8.56,5.58-8.39,10.8l15.57-4.42Z"/>
      </g>
    </g>
  </g>
</svg>