<?xml version="1.0" encoding="UTF-8"?>
<svg id="Capa_2" data-name="Capa 2" xmlns="http://www.w3.org/2000/svg" viewBox="0 0 728 728">
  <defs>
    <style>
      .cls-1 {
        fill: none;
      }
    </style>
  </defs>
  <g id="expositors">
    <g id="exportar">
      <g>
        <g>
          <path d="M339.26,136.65c-2.31,3.32-4.49,6.29-6.5,9.37-8.72,13.37-14.8,27.92-19.73,43.07-4.54,13.99-7.76,28.23-9.08,42.85-.98,10.97-1.83,21.99-1.86,32.99-.04,14.7.32,29.44,1.31,44.1,1.27,18.76,4.66,37.17,10.43,55.16,7.44,23.21,23.19,37.25,46.6,42.46,23.66,5.27,46.6,2.54,67.87-9.51,18.01-10.2,29.36-26.06,36.28-45.28,1.37-3.8,2.41-7.73,3.46-11.64.35-1.31.81-1.88,2.25-1.84,3.83.1,7.66.03,11.72.03-.75,5.95-2.26,11.46-4.39,16.79-12.95,32.38-36.77,52.47-70.11,61.58-16.85,4.61-34.04,5.34-51.4,3.59-28.68-2.9-54.48-13.05-77.11-30.86-26.99-21.25-44.95-48.43-51.76-82.34-7.5-37.31-.68-72.17,19.94-104.04,21.36-33.01,51.23-54.91,89.1-65.76.87-.25,1.76-.44,2.96-.74Z"/>
          <path d="M373.92,144.09c.3-3.91.62-7.91.96-12.31,5.71.4,11.17.6,16.59,1.21,15.89,1.82,31.07,6.09,45.07,14,14.31,8.08,26.4,18.55,34.55,33.03,6.82,12.11,10.02,25.14,8.98,39.08-1.53,20.36-17.89,35.65-38.11,35.34-24.31-.37-37.39-20.47-34.65-41.03,1.4-10.46,6.7-18.56,15.26-24.59,2.73-1.92,5.46-3.85,8.25-5.68,2.8-1.85,3.86-4.32,3.39-7.66-1.16-8.19-5.9-13.99-12.29-18.69-9.46-6.95-20.18-10.66-31.76-11.86-5.34-.55-10.74-.56-16.23-.83Z"/>
          <path d="M252.03,566.38v2.06h-42.6v-2.06c2.66-.45,5.32-.77,7.93-1.36,4.14-.94,5.62-2.63,6.22-6.78.17-1.19.24-2.41.24-3.61.01-13.02.02-26.05,0-39.07,0-1.77-.16-3.55-.41-5.31-.83-5.74-4.18-8.7-9.99-8.71-7.34,0-12.99,3.37-17.1,9.26-4.61,6.6-6.53,14.19-6.95,22.1-.41,7.73-.41,15.5-.44,23.24-.03,5.65,1.98,8.04,7.5,9.17,2.22.45,4.48.68,6.84,1.02.03.66.07,1.28.11,2.07h-42.84c-.05-.61-.09-1.21-.14-1.79.29-.17.45-.33.64-.37,2.45-.4,4.94-.64,7.36-1.2,4.49-1.03,6.33-3.19,6.37-7.78.12-11.52.11-23.05.13-34.57,0-4.63-.04-9.25-.11-13.87-.08-4.86-1.25-6.33-6.05-7.18-2.64-.46-5.35-.62-8.2-.94-.05-.7-.09-1.36-.15-2.27,9.53-.59,18.91-1.17,28.49-1.76v20.35c.13.03.26.07.39.1.75-1.56,1.45-3.14,2.27-4.67,4.26-7.96,10.33-13.68,19.48-15.52,4.55-.91,9.06-.68,13.46.83,7.62,2.61,11.09,8.41,12.23,16,.17,1.17.37,2.33.65,4.08.94-2.23,1.62-3.98,2.4-5.69,7.87-17.21,25.37-18,36.16-13.56,6.88,2.83,10.25,8.39,10.33,15.76.14,13.16.1,26.33.14,39.49,0,1.13.06,2.27.17,3.4.5,5.13,1.95,6.84,6.99,7.97,2.28.5,4.63.73,7.15,1.12.03.63.05,1.29.09,2.09h-42.63v-2.11c2.02-.29,4.04-.54,6.05-.87,6.02-1,8.18-3.16,8.2-9.18.04-14.86,0-29.74-.33-44.6-.18-8.17-3.85-10.96-12.03-10.08-9.69,1.05-15.79,6.56-18.99,15.49-2.61,7.26-3.1,14.86-3.16,22.49-.05,6.04-.05,12.09.13,18.14.12,4.18,1.9,6.27,5.93,7.25,2.62.63,5.31.94,8.13,1.43Z"/>
          <path d="M534.75,572.83c3.77,1.64,7.23,3.12,10.64,4.67.4.18.78.8.85,1.26.42,2.75,2.06,4.6,4.54,5.47,7.75,2.76,15.49,2.88,22.92-1.02,3.97-2.08,6.41-5.6,6.64-10.07.3-5.95.07-11.93.07-18.33-.54.78-.85,1.27-1.21,1.74-2,2.66-3.71,5.63-6.08,7.91-10.3,9.94-26.46,7.99-34.91-4.07-5.11-7.29-7.07-15.58-7.41-24.33-.4-10.18.83-20.03,6.25-28.95,6.03-9.94,16.8-14.31,27.46-11.29,5.04,1.43,8.81,4.55,11.64,8.82,1.59,2.4,2.93,4.96,4.67,7.93v-15.76h11.81c.06.4.18.8.18,1.2,0,23.2.16,46.39-.05,69.58-.14,16.46-9.46,26.41-25.94,28.26-8.13.91-16.09.26-23.45-3.65-6.24-3.32-10.05-8.3-9.51-15.77.08-1.15.56-2.27.91-3.61ZM543.27,531.96c.57,4.58.81,9.22,1.78,13.71,1.41,6.51,4.8,11.73,11.6,13.81,10.01,3.06,19.23-2.26,22.41-12.86,1.98-6.6,2.03-13.31,1.07-20.06-.77-5.42-2.31-10.57-5.7-14.98-4.08-5.29-9.52-7.59-16.12-6.68-6.21.86-9.87,4.95-12.11,10.49-2.15,5.3-2.62,10.88-2.94,16.58Z"/>
          <path d="M662.29,516.37c-3.18-1.71-6.41-3.44-9.73-5.22,2.6-7.78,7.83-12.68,15.56-14.75,8.95-2.4,18-2.53,26.97-.14,8.77,2.33,13.24,7.9,13.33,16.94.13,12.45-.04,24.89-.07,37.34,0,1.42.08,2.84.09,4.26.07,4.78.73,5.55,5.41,6.13.05.25.13.52.13.79,0,2.41,0,4.83,0,7.38-4.41,1.51-8.86,2.8-13.18.33-4.62-2.64-4.35-7.57-4.72-11.18-1.78,1.5-3.97,3.27-6.06,5.14-6.73,6.01-14.44,8.68-23.41,6.72-8.82-1.93-15.68-9.94-16.66-19.18-1.24-11.82,4.76-21.87,16.06-25.55,5.61-1.83,11.63-2.47,17.49-3.45,4.09-.69,8.14-1.21,11.28-4.39,1.05-1.06,1.5-2.04,1.36-3.54-.48-5.31-2.34-7.86-7.59-8.34-4.55-.42-9.24-.29-13.77.32-5.4.74-9.26,4.07-11.61,9.05-.15.32-.3.64-.48.95-.06.11-.2.18-.44.39ZM696.46,525.91c-.23-.09-.47-.19-.7-.28-3.28,2.84-7.13,4.33-11.32,5.02-1.96.33-3.91.7-5.86,1.09-6,1.18-11.22,3.59-14.35,9.23-4.63,8.35.44,18.67,9.71,19.73,9.86,1.13,20.22-6.28,21.61-16.14.86-6.14.65-12.42.92-18.65Z"/>
          <path d="M520.6,536.73h-50.17c.27,5.79,1.29,11.11,4.33,15.84,7.13,11.09,23.81,11.4,31.3.51,1.59-2.31,2.7-4.96,4.17-7.72,3,1.5,6.14,3.06,9.43,4.71-4.47,10.89-12.12,17.94-23.65,20.03-18.64,3.36-33.55-7.4-37.26-26.65-1.99-10.35-1.49-20.56,2.99-30.28,9.42-20.41,31.87-21.98,44.16-13.89,9.45,6.22,13.76,15.43,14.65,26.4.29,3.53.05,7.09.05,11.04ZM508.03,526.89c-.69-8.27-2.42-15.84-10.24-20.06-6.4-3.45-13.02-3.08-18.91,1.21-6.27,4.57-7.66,11.49-8.19,18.85h37.34Z"/>
          <path d="M376.37,549.6c.08,5.61.06,11.27-3.52,16.01-1.29,1.72-3.34,3.15-5.35,3.99-3.7,1.54-7.67,1.36-11.52.29-3.99-1.12-6.03-4.1-6.95-7.91-.54-2.24-.79-4.54-1.14-6.6-2,2.64-3.83,5.61-6.2,8.06-6.78,7.02-18.92,9.22-27.9,5.34-10.71-4.63-13.17-18.62-4.76-27.31,5.19-5.36,11.88-7.97,18.9-9.72,5.99-1.5,12.06-2.66,18.13-3.83,1.51-.29,2-.82,1.95-2.34-.18-4.61-.06-9.25-.38-13.85-.54-7.85-4.02-11.34-11.82-12.18-5.09-.55-9.93.3-14.31,3.07-1,.64-1.95,1.45-2.7,2.37-1.45,1.8-1.15,3.19.76,4.42,3.66,2.36,4.76,4.8,3.73,8.32-.97,3.29-4.38,5.59-8.06,5.44-3.75-.15-6.88-2.64-7.7-6.24-1.08-4.73.55-8.7,3.73-12.1,4.6-4.91,10.57-7.07,17.02-8.02,6.95-1.02,13.72-.18,20.35,2.2,9.27,3.33,13.22,10.26,13.41,19.68.15,7.54.1,15.08.13,22.62.01,5.9,0,11.81,0,17.71,0,.99-.01,2.01.15,2.98.26,1.55.55,3.24,2.35,3.73,1.82.5,3.74.16,4.89-1.33,1.19-1.53,2.22-3.34,2.72-5.19.65-2.37.82-4.9,1-7.37.18-2.69.09-2.7,3.07-2.24ZM348,530.59c-3.91-.28-14.31,2.37-18.25,4.56-8.81,4.9-12.58,17.36-7.98,26.39,1.89,3.71,5.09,5.28,9.19,4.41,5.62-1.21,9.62-4.69,12.72-9.35,5.35-8.05,4.09-17.14,4.32-26.01Z"/>
          <path d="M444.59,568.45h-12.34v-2.61c0-14.51,0-29.03,0-43.54,0-1.21,0-2.43-.18-3.62-1.8-11.33-11.31-16.47-22.1-11.99-6.56,2.72-10.61,8.79-10.62,16.08-.03,14.3,0,28.6,0,42.9v2.71h-12.09v-71.54h12.04v12.43c.91-1.16,1.45-1.85,1.99-2.52,4.41-5.51,9.56-9.92,16.7-11.46,12.99-2.79,24.65,5.51,26.21,18.72.26,2.25.39,4.53.39,6.8.04,15.01.01,30.03.01,45.04,0,.78,0,1.55,0,2.59Z"/>
          <path d="M87.53,533.5c0-19.75,16.99-37.13,36.26-37.1,19.16.03,36.2,17.61,36.16,37.28-.05,19.64-17.02,36.93-36.23,36.92-19.42-.01-36.19-17.21-36.19-37.1ZM144,531.39c-.29-3.09-.62-8.34-1.31-13.54-.61-4.53-1.91-8.94-4.9-12.55-5.15-6.2-12.07-6.68-19.28-5.34-7.54,1.39-11.09,6.88-12.9,13.76-2.19,8.34-2.26,16.86-1.93,25.39.22,5.68.75,11.34,2.7,16.76,1.41,3.92,3.5,7.32,7.19,9.47,11.02,6.42,24.24,1.23,27.93-10.91,2.08-6.82,2.22-13.85,2.5-23.04Z"/>
          <path d="M76.35,549.45h3.27c-.15.9-.18,1.72-.43,2.47-3.39,10.47-10.85,16.31-21.44,18.04-16.89,2.75-33.39-5.69-40.52-21.05-7.64-16.44-1.34-36.08,14.89-46.18,3.32-2.06,7.05-3.46,10.78-4.85-4.18,6.28-6.78,13.02-7.95,20.21-1.91,11.75-1.62,23.5,1.09,35.15,3.05,13.12,13.3,15.09,22.36,13.71,8.8-1.34,14.33-6.7,17.17-15,.28-.8.5-1.61.77-2.5Z"/>
          <path d="M645.6,495.3v12.5c-.95-.09-1.83-.15-2.7-.28-12.41-1.69-21.49,6.21-21.49,18.73v42.15h-11.89v-71.56h11.93v12.66c.17.06.35.11.52.16.73-1.22,1.44-2.46,2.2-3.67,2.43-3.91,5.24-7.45,9.5-9.53,3.82-1.86,7.81-1.71,11.93-1.17Z"/>
          <path d="M52.22,499.7c.07-1.02.13-1.91.18-2.76,10.55-.89,24.25,5.6,26.41,17.04.46,2.42.37,5.14-.23,7.53-1.02,4.04-4.79,6.43-9.03,6.4-4.12-.03-7.3-2.33-8.5-6.15-1.27-4.06.03-8.02,3.48-10.57.11-.09.23-.16.35-.25,3.36-2.39,3.49-4.36.37-7.18-3.04-2.76-6.78-3.71-10.78-3.93-.68-.04-1.38-.08-2.25-.12Z"/>
        </g>
        <rect id="bounding_box" data-name="bounding box" class="cls-1" width="728" height="728"/>
      </g>
    </g>
  </g>
</svg>